<?xml version="1.0" encoding="UTF-8"?>
<!DOCTYPE svg PUBLIC "-//W3C//DTD SVG 1.1//EN" "http://www.w3.org/Graphics/SVG/1.1/DTD/svg11.dtd">
<!-- Creator: CorelDRAW 2020 (64 Bit) -->
<svg xmlns="http://www.w3.org/2000/svg" xml:space="preserve" width="1.33333in" height="1.33333in" version="1.1" style="shape-rendering:geometricPrecision; text-rendering:geometricPrecision; image-rendering:optimizeQuality; fill-rule:evenodd; clip-rule:evenodd"
viewBox="0 0 1333.33 1333.33"
 xmlns:xlink="http://www.w3.org/1999/xlink"
 xmlns:xodm="http://www.corel.com/coreldraw/odm/2003">
 <defs>
  <style type="text/css">
   <![CDATA[
    .fil8 {fill:#23B972;fill-rule:nonzero}
    .fil11 {fill:#394F63;fill-rule:nonzero}
    .fil2 {fill:#445C71;fill-rule:nonzero}
    .fil7 {fill:#5D9069;fill-rule:nonzero}
    .fil5 {fill:#5DC382;fill-rule:nonzero}
    .fil12 {fill:#668892;fill-rule:nonzero}
    .fil3 {fill:#717275;fill-rule:nonzero}
    .fil10 {fill:#919D9E;fill-rule:nonzero}
    .fil4 {fill:#A0C7E7;fill-rule:nonzero}
    .fil0 {fill:#B4B4B3;fill-rule:nonzero}
    .fil1 {fill:#DADCDA;fill-rule:nonzero}
    .fil6 {fill:#EACA6F;fill-rule:nonzero}
    .fil9 {fill:#F0F3F4;fill-rule:nonzero}
   ]]>
  </style>
 </defs>
 <g id="Camada_x0020_1">
  <metadata id="CorelCorpID_0Corel-Layer"/>
  <g id="_1349661048064">
   <g>
    <path class="fil0" d="M757.02 1067.19l49.01 28.11c1.62,0.9 3.43,1.8 5.04,2.88l1.62 1.08c93.15,56.94 96.22,144.86 6.31,196.76 -90.45,52.61 -240.54,49.19 -335.31,-7.75 -94.78,-56.94 -98.38,-145.58 -7.93,-198.02 31.15,-17.2 65.26,-28.38 100.54,-32.97l180.71 9.91z"/>
    <path class="fil1" d="M1145.66 500.53l0 685.94 -90.99 52.43 -241.98 -139.64 -1.62 -1.08c-1.62,-1.08 -3.43,-1.98 -5.04,-2.88l-49.01 -28.11 0 83.43c0.3,3.7 -1.09,7.35 -3.78,9.91l-0.9 0.54 -90.09 52.07 -0.17 -0c-2.81,1.69 -6.35,1.54 -9.01,-0.36l-63.78 -36.76c-8.03,-5.76 -12.84,-14.99 -12.97,-24.87l0 -188.46 -388.65 -224.33 0 -685.75 90.99 -52.61 867.01 500.53z"/>
    <polygon class="fil2" points="1054.68,614.58 1054.68,1157.09 1050.17,1157.09 193.07,662.15 187.67,662.15 187.67,119.81 193.07,119.81 1050.17,614.58 "/>
    <polygon class="fil0" points="1145.67,500.53 1054.68,553.14 187.67,52.61 278.65,-0 "/>
    <g>
     <polygon class="fil3" points="1145.67,500.53 1145.67,1186.46 1054.68,1238.89 1054.68,553.14 "/>
     <path class="fil3" d="M757.02 1067.19l0 83.43c0.3,3.7 -1.09,7.35 -3.78,9.91l-0.9 0.54 -90.09 52.07 -0.18 -0 0 -0.18c2.88,-2.44 4.36,-6.15 3.96,-9.91l0 -188.46 90.98 52.61z"/>
    </g>
    <g>
     <path class="fil4" d="M252.19 298.5c-4.09,-0 -7.66,-2.76 -8.7,-6.7 -1.04,-3.95 0.7,-8.11 4.26,-10.13l59.1 -33.68c2.8,-1.6 6.24,-1.59 9.03,0.04 2.78,1.63 4.48,4.62 4.46,7.85 -0.03,3.22 -1.77,6.19 -4.58,7.78l-59.1 33.68c-1.37,0.76 -2.9,1.17 -4.46,1.17z"/>
     <path class="fil4" d="M252.19 383.26c-4.09,-0 -7.66,-2.76 -8.7,-6.7 -1.04,-3.95 0.7,-8.11 4.26,-10.13l29.56 -16.84c4.33,-2.46 9.82,-0.94 12.28,3.38 2.46,4.33 0.94,9.82 -3.38,12.28l-29.56 16.84c-1.36,0.77 -2.89,1.18 -4.45,1.18z"/>
     <path class="fil4" d="M311.25 349.53c-2.39,0.03 -4.67,-0.94 -6.3,-2.69 -0.91,-0.76 -1.6,-1.76 -1.99,-2.89 -0.51,-1.07 -0.76,-2.25 -0.72,-3.43 -0.02,-1.18 0.23,-2.34 0.72,-3.41 0.43,-1.1 1.11,-2.09 1.99,-2.89 0.81,-0.86 1.8,-1.54 2.89,-1.99 2.19,-0.9 4.65,-0.9 6.84,0 3.3,1.46 5.47,4.68 5.58,8.29 -0.1,4.94 -4.07,8.91 -9.01,9.01l0 0z"/>
     <path class="fil4" d="M340.85 332.74c-4.09,-0 -7.66,-2.76 -8.7,-6.7 -1.04,-3.95 0.7,-8.11 4.26,-10.13l44.34 -25.27c2.8,-1.59 6.23,-1.57 9.01,0.06 2.78,1.63 4.47,4.61 4.45,7.83 -0.02,3.22 -1.76,6.18 -4.56,7.77l-44.34 25.27c-1.36,0.77 -2.89,1.18 -4.45,1.18z"/>
     <path class="fil4" d="M252.19 468c-4.09,-0 -7.66,-2.76 -8.7,-6.7 -1.04,-3.95 0.7,-8.11 4.26,-10.13l133 -75.76c4.33,-2.46 9.82,-0.94 12.28,3.38 2.46,4.32 0.94,9.82 -3.38,12.28l-133 75.77c-1.36,0.77 -2.89,1.17 -4.45,1.18z"/>
     <path class="fil4" d="M414.68 375.31c-1.16,-0.01 -2.31,-0.19 -3.41,-0.55 -1.03,-0.56 -2,-1.22 -2.89,-1.99 -1.73,-1.64 -2.71,-3.92 -2.71,-6.3 0.05,-1.23 0.3,-2.45 0.72,-3.61 0.5,-1.06 1.17,-2.04 1.99,-2.89 0.88,-0.76 1.85,-1.43 2.89,-1.97 2.19,-0.91 4.66,-0.91 6.84,0 1.11,0.5 2.14,1.17 3.06,1.97 0.76,0.85 1.37,1.83 1.8,2.89 0.57,1.12 0.88,2.35 0.9,3.61 -0.08,2.36 -1.04,4.61 -2.69,6.3 -1.76,1.65 -4.08,2.56 -6.49,2.54z"/>
     <path class="fil4" d="M444.31 358.56c-4.09,-0 -7.66,-2.76 -8.7,-6.7 -1.04,-3.95 0.7,-8.11 4.26,-10.13l14.78 -8.41c4.33,-2.46 9.82,-0.94 12.28,3.38 2.46,4.33 0.94,9.82 -3.38,12.28l-14.78 8.41c-1.36,0.77 -2.89,1.18 -4.45,1.18z"/>
    </g>
   </g>
   <g>
   </g>
   <g>
   </g>
   <g>
   </g>
   <g>
   </g>
   <g>
   </g>
   <g>
   </g>
   <g>
   </g>
   <g>
   </g>
   <g>
   </g>
   <g>
   </g>
   <g>
   </g>
   <g>
   </g>
   <g>
   </g>
   <g>
   </g>
   <g>
   </g>
  </g>
  <g id="_1349511552496">
   <g>
    <path class="fil5" d="M619.86 984.12c-14.93,-9.58 -24.21,-25.85 -24.87,-43.57 -0.01,-0.48 0.01,-0.96 0.08,-1.44l24.71 -14.87 0 -79.88 -24.87 -13.76 -17.35 10.48 -412.66 -227.48 0 -19.99 -24.79 -13.67 -42.06 25.19 0.08 40.62 0 18.31 -0.08 21.03c14.91,9.59 24.19,25.86 24.87,43.57 0,16.55 -11.04,23.83 -24.7,16.31l0 148.8c0.45,12.38 6.93,23.76 17.35,30.46l65.65 36.22 15.99 8.8 8.88 4.88 15.99 8.8 8.8 4.88 15.99 8.79 8.8 4.88 15.99 8.8 8.88 4.88 15.99 8.8 8.8 4.88 15.99 8.8 8.8 4.88 15.99 8.8 8.8 4.88 15.99 8.8 8.88 4.88 15.99 8.8 8.8 4.88 15.99 8.8 8.8 4.88 15.99 8.8 8.88 4.88 15.99 8.8 8.8 4.87 15.99 8.8 65.65 36.22c3.52,2.45 8.1,2.76 11.92,0.8l1.12 -0.72 40.86 -24.47c3.81,-2.82 5.88,-7.43 5.44,-12.15l-0.08 -148.88z"/>
    <g>
     <path class="fil6" d="M494.96 1133.32l-15.99 -8.8 -0.08 -55.49c0,-4.41 3.58,-8 8,-8 4.42,0 8,3.58 8,8l0.08 64.29z"/>
     <path class="fil6" d="M470.18 1119.65l-15.99 -8.8 -0.08 -55.49c0,-4.41 3.58,-8 8,-8 4.41,0 8,3.58 8,8l0.08 64.28z"/>
     <path class="fil6" d="M445.31 1041.69l0 64.28 -15.99 -8.8 0 -55.49c0,-4.41 3.58,-8 8,-8 4.42,0 8,3.58 8,8z"/>
     <path class="fil6" d="M420.52 1028.02l0 64.28 -15.99 -8.8 0 -55.49c0,-4.42 3.58,-8 8,-8 4.42,0 7.99,3.58 7.99,8z"/>
     <path class="fil6" d="M395.74 1078.63l-15.99 -8.8 -0.08 -55.49c0,-4.41 3.58,-8 8,-8 4.41,0 8,3.58 8,8l0.08 64.29z"/>
     <path class="fil6" d="M370.87 1000.67l0 64.29 -15.99 -8.8 0 -55.49c0,-4.41 3.58,-8 8,-8 4.42,0 8,3.58 8,8z"/>
     <path class="fil6" d="M346.09 987l0 64.29 -15.99 -8.8 0 -55.49c0,-4.41 3.58,-8 8,-8 4.42,0 8,3.58 8,8z"/>
     <path class="fil6" d="M321.3 1037.61l-15.99 -8.8 -0.08 -55.49c0,-4.41 3.58,-8 8,-8 4.41,0 8,3.58 8,8l0.08 64.29z"/>
     <path class="fil6" d="M296.51 1023.94l-15.99 -8.8 -0.08 -55.49c0,-4.41 3.58,-8 8,-8 4.41,0 8,3.58 8,8l0.08 64.28z"/>
     <path class="fil6" d="M271.65 945.98l0 64.28 -15.99 -8.8 0 -55.49c0,-4.42 3.58,-8 8,-8 4.42,0 8,3.58 8,8z"/>
     <path class="fil6" d="M246.86 996.59l-15.99 -8.79 -0.08 -55.49c0.01,-4.41 3.58,-7.98 8,-8 2.13,-0.02 4.17,0.81 5.68,2.32 1.5,1.5 2.34,3.55 2.32,5.68l0.08 64.28z"/>
     <path class="fil6" d="M222.07 982.93l-15.99 -8.8 -0.08 -55.49c0,-4.41 3.58,-8 8,-8 4.42,0 8,3.58 8,8l0.08 64.29z"/>
     <path class="fil6" d="M197.2 904.96l0 64.28 -15.99 -8.8 0 -55.49c0,-4.42 3.58,-8 8,-8 4.41,0 8,3.58 8,8z"/>
    </g>
    <polygon class="fil7" points="619.78,844.36 619.78,924.24 595.07,939.11 577.81,949.5 577.81,869.62 "/>
    <polygon class="fil8" points="164.9,593.61 122.85,618.87 98.06,605.12 140.12,579.94 "/>
    <polygon class="fil7" points="164.9,593.61 164.9,613.6 122.93,638.87 122.85,618.87 "/>
    <polygon class="fil8" points="577.56,841.08 552.94,855.87 552.94,875.86 122.93,638.87 164.9,613.6 "/>
    <g>
     <path class="fil7" d="M619.86 984.12l-41.98 25.19c-14.95,-9.56 -24.24,-25.85 -24.87,-43.57 0,-16.55 11.11,-23.83 24.79,-16.23l17.27 -10.39c-0.07,0.48 -0.09,0.96 -0.08,1.44 0.66,17.72 9.94,34 24.87,43.57z"/>
     <path class="fil7" d="M619.94 1133c0.44,4.72 -1.62,9.33 -5.44,12.15l-40.86 24.47c3.02,-3.02 4.59,-7.18 4.32,-11.43l-0.08 -148.88 41.98 -25.19 0.08 148.88z"/>
    </g>
    <g>
     <path class="fil9" d="M552.46 1104.02c-1.97,-10.14 -7.19,-19.36 -14.87,-26.27 -15.46,-12.99 -28.97,-4.08 -25.26,16.55 2.05,10.11 7.29,19.3 14.95,26.21 15.41,12.91 28.88,4.13 25.17,-16.49z"/>
     <path class="fil9" d="M163.79 889.68c-2.05,-10.11 -7.29,-19.3 -14.95,-26.21 -15.41,-12.91 -28.88,-4.13 -25.17,16.5 1.98,10.13 7.19,19.35 14.87,26.26 15.46,12.99 28.96,4.08 25.26,-16.55z"/>
    </g>
    <g>
     <path class="fil6" d="M238.72 800.49c-1.35,0 -2.67,-0.34 -3.85,-0.99l-99.24 -54.7c-3.87,-2.13 -5.28,-6.99 -3.15,-10.86 2.13,-3.87 6.99,-5.28 10.86,-3.15l99.24 54.7c3.2,1.76 4.8,5.46 3.89,9 -0.91,3.54 -4.1,6 -7.75,6l0 0z"/>
     <path class="fil6" d="M238.74 830.45c-1.35,0 -2.67,-0.34 -3.85,-0.99l-99.24 -54.71c-3.87,-2.13 -5.28,-6.99 -3.15,-10.86 2.13,-3.87 6.99,-5.28 10.86,-3.15l99.24 54.72c3.2,1.76 4.8,5.46 3.89,9 -0.91,3.54 -4.1,6 -7.75,6l0 0z"/>
     <path class="fil6" d="M238.76 860.41c-1.35,0 -2.67,-0.34 -3.85,-0.99l-99.24 -54.7c-3.87,-2.13 -5.28,-6.99 -3.15,-10.86 2.13,-3.87 6.99,-5.28 10.86,-3.15l99.24 54.7c3.2,1.76 4.8,5.46 3.89,9 -0.91,3.54 -4.1,6 -7.75,6l0 0z"/>
    </g>
    <polygon class="fil2" points="577.81,910.56 577.81,928.79 98.14,664.05 98.14,645.74 "/>
    <polygon class="fil8" points="619.78,844.36 577.81,869.62 552.94,855.87 577.56,841.08 594.91,830.6 "/>
    <g>
     <path class="fil7" d="M573.65 1169.62l-1.12 0.72 1.12 -0.72zm0 0l0 0 0 0z"/>
    </g>
    <polygon class="fil2" points="164.35,831.35 164.29,731.5 213.91,758.85 213.97,858.7 "/>
    <g>
     <path class="fil6" d="M387.65 882.55c-1.35,0 -2.67,-0.34 -3.85,-0.99l-99.24 -54.7c-2.5,-1.38 -4.08,-3.99 -4.14,-6.84 -0.06,-2.85 1.41,-5.53 3.86,-7 2.44,-1.48 5.49,-1.54 8,-0.16l99.24 54.7c3.2,1.76 4.8,5.46 3.89,9 -0.91,3.54 -4.1,6 -7.75,6l0 0z"/>
     <path class="fil6" d="M387.67 912.51c-1.35,0 -2.67,-0.34 -3.85,-0.99l-99.24 -54.71c-3.87,-2.13 -5.28,-6.99 -3.15,-10.86 2.13,-3.87 6.99,-5.28 10.86,-3.15l99.24 54.71c3.2,1.76 4.8,5.46 3.89,9 -0.91,3.54 -4.1,6 -7.75,6l0 0z"/>
     <path class="fil6" d="M387.69 942.46c-1.35,0 -2.67,-0.34 -3.85,-0.99l-99.24 -54.7c-3.87,-2.13 -5.28,-6.99 -3.15,-10.86 2.13,-3.87 6.99,-5.28 10.86,-3.15l99.24 54.7c3.2,1.76 4.8,5.46 3.89,9 -0.91,3.54 -4.1,6.01 -7.75,6z"/>
    </g>
    <polygon class="fil2" points="313.28,913.41 313.22,813.56 362.84,840.91 362.9,940.76 "/>
    <g>
     <path class="fil6" d="M536.45 964.17c-1.35,0 -2.67,-0.34 -3.85,-0.99l-99.24 -54.7c-2.5,-1.38 -4.08,-3.99 -4.13,-6.84 -0.06,-2.86 1.41,-5.53 3.85,-7 2.44,-1.48 5.5,-1.54 8,-0.16l99.24 54.7c3.2,1.76 4.8,5.46 3.89,9 -0.91,3.54 -4.1,6 -7.75,6l0 0z"/>
     <path class="fil6" d="M536.46 994.13c-1.35,0 -2.67,-0.34 -3.85,-0.99l-99.24 -54.71c-3.87,-2.13 -5.28,-6.99 -3.15,-10.86 2.13,-3.87 6.99,-5.28 10.86,-3.15l99.24 54.71c3.2,1.76 4.8,5.46 3.89,9 -0.91,3.54 -4.1,6 -7.75,6l0 0z"/>
     <path class="fil6" d="M536.49 1024.09c-1.35,0 -2.67,-0.34 -3.85,-0.99l-99.24 -54.7c-2.5,-1.38 -4.08,-3.99 -4.14,-6.84 -0.06,-2.85 1.41,-5.53 3.86,-7 2.44,-1.48 5.49,-1.54 8,-0.16l99.24 54.7c3.2,1.76 4.8,5.46 3.88,9 -0.91,3.54 -4.1,6 -7.75,6l0 0z"/>
    </g>
    <polygon class="fil2" points="462.07,995.03 462.01,895.18 511.63,922.53 511.7,1022.38 "/>
   </g>
   <g id="_1350747538608">
   </g>
   <g id="_1350747537888">
   </g>
   <g id="_1349511545200">
   </g>
   <g id="_1349511546352">
   </g>
   <g id="_1349511546016">
   </g>
   <g id="_1349511558784">
   </g>
   <g id="_1349511558688">
   </g>
   <g id="_1349511558448">
   </g>
   <g id="_1349511556768">
   </g>
   <g id="_1349511555280">
   </g>
   <g id="_1349511556720">
   </g>
   <g id="_1349511555184">
   </g>
   <g id="_1349511553120">
   </g>
   <g id="_1349511552736">
   </g>
   <g id="_1349511553072">
   </g>
  </g>
  <g>
   <g id="_1349653470272">
    <path class="fil0" d="M1104.04 992.81l-49.97 -27.56 -17.32 10.48 -0.06 0c-9.57,-6.54 -15.46,-17.24 -15.87,-28.83l-158.15 -87.16 -39.55 23.8 0.12 221.02 16.66 9.21 0 20.11 -16.66 -9.21 0.06 50.27 158.09 87.16c0,-11.14 7.45,-15.99 16.66,-10.96 9.98,6.49 16.19,17.42 16.66,29.31l49.91 27.5 39.56 -23.8 -0.12 -291.35z"/>
    <g>
     <path class="fil6" d="M877.27 1036.5c-1.13,0 -2.24,-0.31 -3.2,-0.92l-20.81 -13c-2.84,-1.77 -3.7,-5.51 -1.93,-8.35 1.77,-2.84 5.51,-3.7 8.35,-1.93l20.81 13c2.3,1.43 3.36,4.21 2.62,6.81 -0.75,2.6 -3.13,4.39 -5.83,4.39l0 0z"/>
     <path class="fil6" d="M877.29 1076.69c-1.13,0 -2.25,-0.32 -3.2,-0.92l-20.81 -13c-1.84,-1.15 -2.93,-3.19 -2.85,-5.35 0.07,-2.17 1.3,-4.13 3.22,-5.14 1.92,-1.02 4.23,-0.93 6.06,0.23l20.81 13c2.29,1.43 3.36,4.21 2.61,6.81 -0.75,2.6 -3.13,4.39 -5.83,4.38l0 0z"/>
     <path class="fil6" d="M1031.21 1119.83c-0.97,0 -1.94,-0.23 -2.8,-0.69l-28.96 -15.12c-2.96,-1.55 -4.11,-5.21 -2.57,-8.18 1.55,-2.96 5.21,-4.11 8.18,-2.57l28.96 15.12c2.48,1.29 3.75,4.11 3.08,6.82 -0.67,2.71 -3.1,4.61 -5.89,4.61l0 0z"/>
     <path class="fil6" d="M1031.23 1160.03c-0.98,0 -1.94,-0.23 -2.8,-0.69l-28.95 -15.13c-2.96,-1.55 -4.11,-5.21 -2.57,-8.17 1.55,-2.96 5.2,-4.11 8.17,-2.57l28.95 15.12c2.48,1.3 3.75,4.11 3.08,6.82 -0.66,2.71 -3.09,4.61 -5.89,4.61z"/>
     <path class="fil6" d="M918.96 1193.55c-3.34,0 -6.06,-2.71 -6.06,-6.06l-0.01 -30.87c0,-3.34 2.71,-6.06 6.06,-6.06 3.35,0 6.06,2.71 6.06,6.06l0.01 30.87c-0,3.35 -2.71,6.06 -6.06,6.06z"/>
     <path class="fil6" d="M952.24 1211.9c-3.34,0 -6.06,-2.71 -6.06,-6.06l-0 -30.86c0,-3.35 2.71,-6.06 6.06,-6.06 3.35,0 6.06,2.71 6.06,6.06l0.01 30.86c0,3.35 -2.71,6.06 -6.06,6.06z"/>
     <path class="fil6" d="M918.83 1012.26c-3.34,0 -6.06,-2.71 -6.06,-6.06l-0.01 -29.71c0,-3.34 2.71,-6.06 6.06,-6.06 3.34,0 6.06,2.71 6.06,6.06l0.01 29.71c0,3.34 -2.71,6.06 -6.06,6.06z"/>
     <path class="fil6" d="M952.12 1030.61c-3.34,0 -6.06,-2.71 -6.06,-6.06l-0.02 -29.7c0,-3.35 2.71,-6.06 6.06,-6.06 3.35,0 6.06,2.71 6.06,6.06l0.01 29.7c-0,3.35 -2.71,6.06 -6.06,6.06z"/>
     <path class="fil6" d="M1064.55 1228.61c-1.02,0 -2.02,-0.26 -2.91,-0.75l-12.48 -6.88c-2.93,-1.61 -4,-5.3 -2.38,-8.23 1.61,-2.93 5.3,-4 8.23,-2.38l12.48 6.88c2.42,1.33 3.63,4.14 2.94,6.82 -0.69,2.68 -3.11,4.55 -5.87,4.54l0 0z"/>
     <path class="fil6" d="M1064.54 1198.47c-1.02,0 -2.02,-0.26 -2.92,-0.75l-12.48 -6.88c-1.89,-1.04 -3.09,-3.02 -3.13,-5.18 -0.04,-2.16 1.07,-4.19 2.92,-5.31 1.85,-1.12 4.16,-1.17 6.06,-0.12l12.48 6.88c2.42,1.33 3.63,4.14 2.94,6.82 -0.69,2.68 -3.11,4.55 -5.87,4.55l0 0z"/>
     <path class="fil6" d="M1064.52 1168.33c-1.02,0 -2.02,-0.26 -2.92,-0.75l-12.48 -6.88c-2.93,-1.61 -4,-5.3 -2.38,-8.23 1.61,-2.93 5.3,-4 8.23,-2.38l12.48 6.88c2.42,1.33 3.63,4.14 2.94,6.82 -0.69,2.68 -3.11,4.55 -5.87,4.54l0 0z"/>
     <path class="fil6" d="M1064.49 1138.19c-1.02,0 -2.02,-0.26 -2.92,-0.75l-12.48 -6.88c-2.93,-1.61 -4,-5.3 -2.38,-8.23 1.61,-2.93 5.3,-4 8.23,-2.38l12.48 6.88c2.42,1.33 3.63,4.14 2.94,6.82 -0.69,2.68 -3.11,4.55 -5.87,4.55l0 0z"/>
     <path class="fil6" d="M1064.48 1108.04c-1.02,0 -2.02,-0.26 -2.92,-0.75l-12.48 -6.88c-2.93,-1.61 -4,-5.3 -2.39,-8.23 1.62,-2.93 5.3,-4 8.23,-2.39l12.48 6.88c2.42,1.33 3.63,4.14 2.94,6.81 -0.69,2.68 -3.11,4.55 -5.87,4.55z"/>
    </g>
    <polygon class="fil10" points="1020.82,946.9 981.2,970.7 823.11,883.54 862.67,859.74 "/>
    <g>
     <path class="fil6" d="M841.89 1010.98c-0.81,-0.01 -1.61,-0.18 -2.36,-0.48 -0.74,-0.29 -1.4,-0.75 -1.94,-1.33 -0.56,-0.56 -1.02,-1.21 -1.33,-1.94 -0.89,-2.27 -0.37,-4.85 1.33,-6.6 2.41,-2.24 6.14,-2.24 8.54,0 1.15,1.14 1.8,2.69 1.81,4.3 -0,0.79 -0.17,1.57 -0.48,2.3 -0.29,0.74 -0.74,1.4 -1.33,1.94 -1.1,1.16 -2.64,1.82 -4.24,1.81z"/>
     <path class="fil6" d="M841.89 990.87c-0.81,0 -1.62,-0.17 -2.36,-0.48 -0.72,-0.29 -1.38,-0.72 -1.94,-1.27 -1.78,-1.7 -2.31,-4.34 -1.33,-6.6 0.33,-0.74 0.78,-1.41 1.33,-2 2.41,-2.24 6.14,-2.24 8.54,0 0.55,0.59 1,1.26 1.33,2 0.65,1.46 0.65,3.14 0,4.61 -0.31,0.75 -0.76,1.43 -1.33,1.99 -1.12,1.13 -2.65,1.76 -4.24,1.76z"/>
     <path class="fil6" d="M841.83 970.76c-0.79,0.01 -1.57,-0.13 -2.3,-0.43 -0.72,-0.31 -1.39,-0.77 -1.94,-1.33 -0.58,-0.54 -1.04,-1.2 -1.33,-1.94 -0.31,-0.75 -0.47,-1.55 -0.49,-2.36 0.04,-1.61 0.69,-3.15 1.82,-4.3 2.42,-2.21 6.12,-2.21 8.54,0 0.56,0.59 1,1.26 1.33,2 0.31,0.73 0.48,1.51 0.48,2.3 -0.01,0.81 -0.18,1.61 -0.48,2.36 -0.33,0.72 -0.78,1.37 -1.33,1.94 -1.14,1.14 -2.69,1.77 -4.3,1.76z"/>
     <path class="fil6" d="M841.83 950.71c-0.79,-0 -1.57,-0.17 -2.3,-0.48 -0.72,-0.31 -1.39,-0.76 -1.94,-1.33 -1.14,-1.11 -1.8,-2.64 -1.81,-4.24 0,-0.81 0.17,-1.61 0.48,-2.36 0.29,-0.74 0.75,-1.4 1.33,-1.94 2.38,-2.3 6.16,-2.3 8.54,0 0.54,0.57 0.99,1.22 1.33,1.94 0.3,0.75 0.44,1.55 0.42,2.36 0.02,0.79 -0.13,1.57 -0.42,2.3 -0.31,0.73 -0.77,1.39 -1.33,1.94 -1.13,1.16 -2.68,1.81 -4.3,1.81z"/>
    </g>
    <path class="fil1" d="M843.16 924.55c-2.45,-0.01 -4.65,-1.49 -5.59,-3.75 -0.94,-2.26 -0.43,-4.87 1.29,-6.61 0.57,-0.58 1.25,-1.04 2,-1.33 1.87,-0.74 4,-0.51 5.67,0.61 1.67,1.13 2.68,3 2.7,5.02 -0.09,3.31 -2.75,5.98 -6.06,6.06l0 0z"/>
    <g>
     <path class="fil6" d="M865.27 934.96c-0.79,-0.01 -1.57,-0.18 -2.3,-0.48 -0.74,-0.3 -1.4,-0.75 -1.94,-1.33 -1.17,-1.11 -1.82,-2.64 -1.82,-4.24 0.03,-1.61 0.68,-3.15 1.82,-4.3 2.41,-2.24 6.13,-2.24 8.54,0 0.56,0.59 1,1.26 1.33,2 0.29,0.73 0.44,1.52 0.43,2.3 0.03,1.6 -0.61,3.13 -1.76,4.24 -1.13,1.15 -2.68,1.81 -4.3,1.81z"/>
     <path class="fil6" d="M881.93 944.17c-2.45,-0.01 -4.65,-1.49 -5.57,-3.76 -0.31,-0.73 -0.48,-1.51 -0.48,-2.3 0.02,-1.6 0.65,-3.14 1.76,-4.3 0.59,-0.55 1.26,-1 2,-1.33 2.27,-0.9 4.86,-0.38 6.6,1.33 0.55,0.56 0.98,1.22 1.27,1.94 0.31,0.75 0.48,1.55 0.48,2.36 -0.01,0.79 -0.17,1.57 -0.48,2.3 -0.29,0.72 -0.72,1.38 -1.27,1.94 -1.13,1.16 -2.68,1.81 -4.3,1.82z"/>
     <path class="fil6" d="M898.58 953.32c-0.81,-0.02 -1.61,-0.18 -2.36,-0.48 -0.72,-0.3 -1.38,-0.73 -1.94,-1.27 -1.14,-1.14 -1.77,-2.69 -1.76,-4.3 -0.01,-1.61 0.63,-3.16 1.76,-4.3 2.41,-2.24 6.14,-2.24 8.54,0 1.15,1.14 1.8,2.69 1.81,4.3 -0.03,1.61 -0.68,3.15 -1.81,4.3 -1.13,1.13 -2.65,1.76 -4.24,1.76z"/>
     <path class="fil6" d="M915.24 962.46c-1.61,0.02 -3.16,-0.62 -4.3,-1.76 -0.56,-0.56 -1.02,-1.21 -1.33,-1.94 -0.32,-0.75 -0.48,-1.55 -0.48,-2.36 0.01,-0.79 0.17,-1.57 0.48,-2.3 0.31,-0.72 0.77,-1.39 1.33,-1.94 0.29,-0.28 0.59,-0.54 0.91,-0.79 0.32,-0.22 0.67,-0.4 1.03,-0.54 2.27,-0.9 4.86,-0.38 6.6,1.33 0.58,0.54 1.04,1.2 1.33,1.94 0.31,0.73 0.48,1.51 0.48,2.3 -0,0.81 -0.17,1.61 -0.48,2.36 -0.29,0.74 -0.75,1.4 -1.33,1.94 -1.11,1.15 -2.65,1.78 -4.24,1.76z"/>
    </g>
    <g>
     <path class="fil1" d="M1044.98 1035.27c-1.62,-0 -3.17,-0.66 -4.3,-1.81 -0.57,-0.56 -1.02,-1.22 -1.33,-1.94 -0.57,-1.48 -0.57,-3.12 0,-4.6 0.3,-0.75 0.75,-1.43 1.33,-2 0.58,-0.56 1.26,-1.01 2,-1.33 0.35,-0.13 0.72,-0.23 1.09,-0.3 1.18,-0.24 2.4,-0.13 3.52,0.3 0.72,0.35 1.4,0.8 2,1.33 0.56,0.57 0.99,1.25 1.27,2 0.65,1.46 0.65,3.13 0,4.6 -0.95,2.24 -3.14,3.72 -5.57,3.76l0 0z"/>
     <path class="fil1" d="M1046.26 1281.92c-2.03,0.02 -3.93,-0.99 -5.05,-2.67 -1.12,-1.69 -1.32,-3.83 -0.52,-5.69 0.31,-0.73 0.74,-1.41 1.27,-2 2.43,-2.24 6.17,-2.24 8.6,0 0.54,0.59 0.96,1.26 1.27,2 0.31,0.73 0.48,1.51 0.48,2.31 0.02,1.61 -0.61,3.16 -1.76,4.3 -0.59,0.55 -1.26,1 -2,1.33 -0.73,0.29 -1.51,0.44 -2.3,0.43z"/>
     <path class="fil1" d="M842.74 1168.35c-1.61,0.02 -3.16,-0.62 -4.3,-1.76 -0.55,-0.57 -1,-1.23 -1.34,-1.94 -0.26,-0.76 -0.41,-1.56 -0.42,-2.36 0.03,-1.58 0.66,-3.1 1.76,-4.24 0.56,-0.59 1.24,-1.04 2,-1.33 1.48,-0.61 3.13,-0.61 4.6,0 0.76,0.29 1.44,0.74 2,1.33 1.1,1.14 1.73,2.66 1.76,4.24 -0,0.81 -0.17,1.61 -0.48,2.36 -0.29,0.72 -0.72,1.38 -1.27,1.94 -0.59,0.55 -1.26,1 -2,1.33 -0.73,0.29 -1.51,0.43 -2.3,0.43z"/>
    </g>
    <path class="fil3" d="M1036.69 975.73l-22.17 13.33c0,11.08 -7.45,15.99 -16.66,10.9 -10,-6.44 -16.22,-17.37 -16.66,-29.26l39.61 -23.8c0.41,11.58 6.3,22.29 15.87,28.83z"/>
    <polygon class="fil10" points="1104.04,992.81 1064.43,1016.55 1014.52,989.06 1036.69,975.73 1036.75,975.73 1054.07,965.25 "/>
    <polygon class="fil3" points="1104.17,1284.16 1064.61,1307.96 1064.43,1016.55 1104.04,992.81 "/>
    <path class="fil11" d="M885.57 1012.92l0.06 101.45c-0.02,10.83 5.19,20.99 13.98,27.31l88.56 48.82c7.72,4.25 13.96,-1.07 13.96,-11.91l-0.06 -101.45c0.02,-10.82 -5.19,-20.99 -13.98,-27.31l-88.56 -48.82c-7.72,-4.25 -13.96,1.08 -13.96,11.91z"/>
    <polygon class="fil1" points="977.09,1023.68 910.51,986.98 910.53,1007.07 977.1,1043.77 "/>
    <g>
     <path class="fil12" d="M912.81 1063.98c-2.45,-0.05 -4.65,-1.51 -5.63,-3.76 -0.29,-0.73 -0.44,-1.52 -0.43,-2.3 0.02,-1.6 0.65,-3.14 1.76,-4.3 0.57,-0.58 1.25,-1.03 2,-1.33 1.87,-0.77 4.01,-0.56 5.69,0.58 1.68,1.13 2.69,3.03 2.67,5.06 -0,0.79 -0.17,1.57 -0.48,2.3 -0.29,0.72 -0.72,1.39 -1.27,1.94 -1.13,1.15 -2.69,1.81 -4.3,1.81z"/>
     <path class="fil12" d="M929.47 1073.12c-1.61,0.02 -3.16,-0.61 -4.3,-1.76 -0.57,-0.57 -1.02,-1.25 -1.33,-2 -0.29,-0.73 -0.44,-1.51 -0.43,-2.3 -0.01,-1.59 0.62,-3.12 1.76,-4.24 0.29,-0.28 0.59,-0.54 0.91,-0.79 0.31,-0.23 0.66,-0.41 1.03,-0.54 2.27,-0.91 4.86,-0.38 6.6,1.33 1.16,1.11 1.81,2.64 1.82,4.24 -0,1.62 -0.66,3.17 -1.82,4.3 -0.55,0.57 -1.21,1.02 -1.94,1.34 -0.74,0.29 -1.52,0.43 -2.31,0.42z"/>
     <path class="fil12" d="M946.07 1082.33c-2.44,-0.04 -4.62,-1.52 -5.54,-3.78 -0.93,-2.26 -0.41,-4.85 1.3,-6.58 2.41,-2.24 6.13,-2.24 8.54,0 1.16,1.13 1.81,2.68 1.82,4.3 -0.01,1.6 -0.66,3.13 -1.82,4.24 -1.13,1.15 -2.68,1.81 -4.3,1.81z"/>
     <path class="fil12" d="M962.73 1091.48c-1.59,0.02 -3.13,-0.62 -4.24,-1.76 -1.78,-1.7 -2.31,-4.34 -1.33,-6.6 0.65,-1.46 1.81,-2.62 3.27,-3.27 1.11,-0.48 2.33,-0.61 3.52,-0.36 0.38,0.05 0.75,0.18 1.09,0.36 0.39,0.12 0.76,0.3 1.09,0.55 0.31,0.24 0.62,0.51 0.91,0.79 0.57,0.55 1.02,1.21 1.33,1.94 0.3,0.73 0.44,1.52 0.43,2.3 0.02,1.61 -0.61,3.16 -1.76,4.3 -0.57,0.56 -1.25,1.02 -2,1.33 -0.72,0.3 -1.51,0.44 -2.3,0.43z"/>
     <path class="fil12" d="M910.52 1038.24c-0.79,0.01 -1.57,-0.13 -2.3,-0.43 -0.73,-0.32 -1.39,-0.77 -1.94,-1.33 -0.59,-0.56 -1.04,-1.24 -1.33,-2 -1.07,-2.66 -0.13,-5.71 2.26,-7.3 2.39,-1.6 5.56,-1.3 7.61,0.7 0.55,0.59 1,1.26 1.33,2 0.77,1.87 0.55,4.01 -0.58,5.69 -1.13,1.68 -3.03,2.68 -5.06,2.67z"/>
     <path class="fil12" d="M927.17 1047.44c-0.79,-0.01 -1.57,-0.17 -2.3,-0.48 -0.75,-0.31 -1.43,-0.76 -2,-1.33 -0.54,-0.56 -0.98,-1.21 -1.27,-1.93 -0.31,-0.73 -0.47,-1.51 -0.48,-2.3 0.02,-0.81 0.18,-1.61 0.48,-2.37 0.3,-0.72 0.73,-1.38 1.27,-1.93 0.59,-0.56 1.26,-1.01 2,-1.33 2.27,-0.9 4.86,-0.37 6.6,1.33 0.55,0.56 0.98,1.21 1.27,1.93 0.31,0.75 0.47,1.56 0.48,2.37 0.01,1.59 -0.63,3.12 -1.76,4.24 -1.13,1.16 -2.68,1.81 -4.3,1.82z"/>
     <path class="fil12" d="M943.83 1056.59c-0.79,-0.01 -1.57,-0.17 -2.3,-0.48 -0.73,-0.31 -1.41,-0.74 -2,-1.27 -1.73,-1.73 -2.24,-4.35 -1.27,-6.6 0.31,-0.74 0.74,-1.41 1.27,-2 2.41,-2.24 6.14,-2.24 8.54,0 0.57,0.57 1.03,1.25 1.33,2 0.31,0.72 0.48,1.51 0.48,2.3 -0,1.62 -0.66,3.17 -1.81,4.3 -1.11,1.15 -2.65,1.78 -4.24,1.76z"/>
     <path class="fil12" d="M960.48 1065.8c-1.62,-0.01 -3.17,-0.66 -4.3,-1.82 -1.13,-1.12 -1.76,-2.65 -1.76,-4.24 -0.01,-0.81 0.13,-1.61 0.43,-2.36 0.31,-0.73 0.77,-1.39 1.33,-1.94 2.41,-2.24 6.13,-2.24 8.54,0 0.59,0.54 1.04,1.2 1.33,1.94 0.31,0.75 0.48,1.55 0.48,2.36 -0.07,3.31 -2.74,5.98 -6.06,6.06z"/>
     <path class="fil12" d="M977.14 1074.94c-3.36,0.01 -6.09,-2.7 -6.11,-6.06 0.02,-1.62 0.67,-3.17 1.81,-4.31 2.41,-2.24 6.13,-2.24 8.54,0 1.15,1.14 1.8,2.69 1.81,4.31 -0.01,1.62 -0.66,3.17 -1.81,4.3 -1.13,1.13 -2.65,1.76 -4.24,1.76z"/>
     <path class="fil12" d="M912.81 1112.44c-2.45,-0.05 -4.65,-1.51 -5.63,-3.76 -0.29,-0.73 -0.44,-1.52 -0.43,-2.3 0.02,-1.6 0.65,-3.14 1.76,-4.3 0.57,-0.58 1.25,-1.03 2,-1.33 1.1,-0.43 2.3,-0.54 3.46,-0.3 0.39,0.06 0.78,0.16 1.15,0.3 0.74,0.33 1.41,0.78 2,1.33 1.12,1.15 1.75,2.7 1.76,4.3 0,1.59 -0.63,3.12 -1.76,4.24 -1.13,1.15 -2.69,1.81 -4.3,1.81z"/>
     <path class="fil12" d="M929.47 1121.58c-2.01,-0.02 -3.89,-1.03 -5.01,-2.7 -1.13,-1.67 -1.36,-3.79 -0.62,-5.66 0.33,-0.74 0.78,-1.41 1.33,-2 0.31,-0.24 0.61,-0.48 0.91,-0.73 0.31,-0.22 0.66,-0.41 1.03,-0.54 2.26,-0.9 4.84,-0.4 6.6,1.27 0.57,0.57 1.03,1.25 1.33,2 0.31,0.73 0.48,1.51 0.48,2.3 -0,1.62 -0.66,3.17 -1.81,4.3 -0.56,0.57 -1.22,1.02 -1.94,1.33 -0.73,0.3 -1.52,0.44 -2.3,0.42z"/>
     <path class="fil12" d="M946.07 1130.79c-1.6,0 -3.14,-0.65 -4.24,-1.81 -2.34,-2.37 -2.34,-6.18 0,-8.54 2.41,-2.24 6.13,-2.24 8.54,0 1.16,1.13 1.81,2.68 1.82,4.3 -0.01,1.6 -0.66,3.13 -1.82,4.24 -1.13,1.15 -2.68,1.81 -4.3,1.81z"/>
     <path class="fil12" d="M962.73 1139.94c-1.59,0.02 -3.13,-0.62 -4.24,-1.76 -0.59,-0.55 -1.05,-1.24 -1.33,-2 -0.93,-2.27 -0.41,-4.87 1.33,-6.6 1.43,-1.43 3.48,-2.05 5.46,-1.63 0.38,0.05 0.75,0.18 1.09,0.36 0.39,0.12 0.76,0.3 1.09,0.54l0.91 0.73c0.56,0.59 1,1.26 1.33,2 0.57,1.48 0.57,3.12 0,4.6 -0.3,0.75 -0.75,1.43 -1.33,2 -0.57,0.57 -1.26,1.02 -2,1.33 -0.73,0.3 -1.51,0.44 -2.3,0.43z"/>
     <path class="fil12" d="M910.52 1086.69c-0.79,0.01 -1.57,-0.13 -2.3,-0.43 -0.73,-0.31 -1.39,-0.77 -1.94,-1.33 -0.59,-0.56 -1.04,-1.24 -1.33,-2 -1.07,-2.66 -0.13,-5.71 2.26,-7.3 2.39,-1.59 5.56,-1.3 7.61,0.7 0.55,0.59 1,1.26 1.33,2 0.77,1.87 0.55,4.01 -0.58,5.69 -1.13,1.68 -3.03,2.68 -5.06,2.67z"/>
     <path class="fil12" d="M927.17 1095.9c-0.79,-0.01 -1.57,-0.17 -2.3,-0.48 -0.75,-0.31 -1.43,-0.76 -2,-1.33 -0.54,-0.56 -0.98,-1.21 -1.27,-1.94 -0.31,-0.72 -0.47,-1.51 -0.48,-2.3 0.02,-0.81 0.18,-1.61 0.48,-2.37 0.3,-0.72 0.73,-1.38 1.27,-1.93 0.59,-0.56 1.26,-1.01 2,-1.34 2.27,-0.89 4.86,-0.37 6.6,1.34 0.55,0.56 0.98,1.21 1.27,1.93 0.31,0.75 0.47,1.56 0.48,2.37 0.01,1.59 -0.63,3.12 -1.76,4.24 -1.13,1.16 -2.68,1.81 -4.3,1.82z"/>
     <path class="fil12" d="M943.83 1105.05c-0.79,-0.01 -1.57,-0.17 -2.3,-0.48 -0.73,-0.31 -1.41,-0.74 -2,-1.27 -1.73,-1.73 -2.24,-4.35 -1.27,-6.6 0.31,-0.74 0.74,-1.41 1.27,-2 2.41,-2.24 6.14,-2.24 8.54,0 0.57,0.57 1.03,1.25 1.33,2 0.31,0.72 0.48,1.51 0.48,2.3 -0,1.62 -0.66,3.17 -1.81,4.3 -1.11,1.15 -2.65,1.78 -4.24,1.76z"/>
     <path class="fil12" d="M960.48 1114.25c-1.62,-0 -3.17,-0.66 -4.3,-1.81 -1.13,-1.12 -1.76,-2.65 -1.76,-4.24 -0.01,-0.81 0.13,-1.61 0.43,-2.36 0.31,-0.73 0.77,-1.39 1.33,-1.94 2.41,-2.24 6.13,-2.24 8.54,0 0.59,0.54 1.04,1.2 1.33,1.94 0.31,0.75 0.48,1.55 0.48,2.36 -0.07,3.31 -2.74,5.98 -6.06,6.06z"/>
     <path class="fil12" d="M977.14 1123.4c-3.36,0.01 -6.09,-2.7 -6.11,-6.06 0.02,-1.61 0.67,-3.16 1.81,-4.3 2.41,-2.24 6.13,-2.24 8.54,0 1.15,1.14 1.8,2.69 1.81,4.3 -0.01,1.62 -0.66,3.17 -1.81,4.3 -1.13,1.13 -2.65,1.76 -4.24,1.76z"/>
     <path class="fil12" d="M910.52 1135.15c-0.79,0.01 -1.57,-0.13 -2.3,-0.43 -0.73,-0.32 -1.39,-0.77 -1.94,-1.33 -1.16,-1.13 -1.81,-2.69 -1.81,-4.3 0.01,-2.03 1.03,-3.92 2.72,-5.04 1.69,-1.12 3.83,-1.32 5.7,-0.54 0.72,0.3 1.38,0.73 1.93,1.27 1.13,1.15 1.76,2.69 1.76,4.3 0.02,1.61 -0.61,3.16 -1.76,4.3 -1.14,1.14 -2.69,1.77 -4.3,1.76l0 0z"/>
     <path class="fil12" d="M927.17 1144.36c-0.79,-0.01 -1.57,-0.17 -2.3,-0.48 -0.75,-0.31 -1.43,-0.76 -2,-1.33 -0.54,-0.56 -0.98,-1.21 -1.27,-1.93 -0.31,-0.73 -0.47,-1.51 -0.48,-2.3 0.02,-0.81 0.18,-1.61 0.48,-2.37 0.3,-0.72 0.73,-1.38 1.27,-1.93 0.59,-0.56 1.26,-1.01 2,-1.33 2.27,-0.9 4.86,-0.37 6.6,1.33 0.55,0.56 0.98,1.21 1.27,1.93 0.31,0.75 0.47,1.56 0.48,2.37 0.01,1.59 -0.63,3.12 -1.76,4.24 -1.13,1.16 -2.68,1.81 -4.3,1.82z"/>
     <path class="fil12" d="M943.83 1153.5c-2.03,0.02 -3.93,-0.98 -5.05,-2.67 -1.13,-1.69 -1.32,-3.83 -0.52,-5.69 0.31,-0.73 0.74,-1.41 1.27,-2 2.41,-2.24 6.14,-2.24 8.54,0 0.57,0.57 1.03,1.25 1.33,2 0.31,0.73 0.48,1.51 0.48,2.3 -0,1.62 -0.66,3.17 -1.81,4.3 -1.11,1.15 -2.65,1.78 -4.24,1.76z"/>
     <path class="fil12" d="M960.48 1162.71c-1.62,-0 -3.17,-0.66 -4.3,-1.81 -1.13,-1.12 -1.76,-2.65 -1.76,-4.24 -0.01,-0.81 0.13,-1.61 0.43,-2.36 0.31,-0.73 0.77,-1.39 1.33,-1.94 2.41,-2.24 6.13,-2.24 8.54,0 0.59,0.54 1.04,1.2 1.33,1.94 0.31,0.75 0.48,1.55 0.48,2.36 -0.07,3.31 -2.74,5.98 -6.06,6.06z"/>
     <path class="fil12" d="M977.14 1171.86c-3.36,0.01 -6.09,-2.7 -6.11,-6.06 0.02,-1.62 0.67,-3.17 1.81,-4.31 2.41,-2.24 6.13,-2.24 8.54,0 1.15,1.14 1.8,2.69 1.81,4.31 -0.01,1.62 -0.66,3.17 -1.81,4.3 -1.13,1.13 -2.65,1.76 -4.24,1.76z"/>
    </g>
    <g>
     <polygon class="fil1" points="977.19,1184.44 910.61,1147.74 910.62,1167.83 977.2,1204.53 "/>
     <polygon class="fil1" points="1002.09,1087.68 1002.13,1168.06 1018.78,1177.23 1018.72,1096.85 "/>
     <polygon class="fil1" points="868.94,1014.28 868.99,1094.66 885.63,1103.83 885.58,1023.45 "/>
    </g>
   </g>
   <g id="_1349653469792">
   </g>
   <g id="_1349653470896">
   </g>
   <g id="_1349653470656">
   </g>
   <g id="_1349653470176">
   </g>
   <g id="_1349653468736">
   </g>
   <g id="_1349653468016">
   </g>
   <g id="_1349653466288">
   </g>
   <g id="_1349653467824">
   </g>
   <g id="_1349653469216">
   </g>
   <g id="_1349653467776">
   </g>
   <g id="_1349653467536">
   </g>
   <g id="_1349653468592">
   </g>
   <g id="_1349653468544">
   </g>
   <g id="_1349653464704">
   </g>
   <g id="_1349653465808">
   </g>
  </g>
 </g>
</svg>
