<?xml version="1.0" encoding="UTF-8"?>
<!DOCTYPE svg PUBLIC "-//W3C//DTD SVG 1.1//EN" "http://www.w3.org/Graphics/SVG/1.1/DTD/svg11.dtd">
<!-- Creator: CorelDRAW 2020 (64 Bit) -->
<svg xmlns="http://www.w3.org/2000/svg" xml:space="preserve" width="1.33333in" height="1.33333in" version="1.1" style="shape-rendering:geometricPrecision; text-rendering:geometricPrecision; image-rendering:optimizeQuality; fill-rule:evenodd; clip-rule:evenodd"
viewBox="0 0 1333.33 1333.33"
 xmlns:xlink="http://www.w3.org/1999/xlink"
 xmlns:xodm="http://www.corel.com/coreldraw/odm/2003">
 <defs>
  <style type="text/css">
   <![CDATA[
    .fil5 {fill:#394F63;fill-rule:nonzero}
    .fil1 {fill:#445C71;fill-rule:nonzero}
    .fil6 {fill:#4F6F7F;fill-rule:nonzero}
    .fil2 {fill:#668892;fill-rule:nonzero}
    .fil4 {fill:#74E1C5;fill-rule:nonzero}
    .fil3 {fill:#A5B4B4;fill-rule:nonzero}
    .fil0 {fill:#C9CED1;fill-rule:nonzero}
   ]]>
  </style>
 </defs>
 <g id="Camada_x0020_1">
  <metadata id="CorelCorpID_0Corel-Layer"/>
  <g id="_1349650997184">
   <g>
    <g>
     <polygon class="fil0" points="324.78,985.76 230.72,1040 230.72,1040.18 154.5,996.39 154.33,887.93 230.54,931.53 "/>
     <polygon class="fil0" points="812.16,1224.14 812.16,1289 738.47,1331.53 662.25,1287.74 662.07,1179.28 738.29,1223.06 776.31,1244.86 "/>
     <polygon class="fil0" points="1180.63,1011.53 1180.63,1076.21 1106.94,1118.74 1050.72,1086.48 1106.94,1054.05 "/>
    </g>
    <polygon class="fil1" points="1218.65,991.35 1180.63,1013.33 1106.94,1055.85 1050.72,1088.29 812.16,1225.94 776.31,1246.67 738.29,1224.86 662.07,1181.08 324.78,987.57 230.54,933.33 116.31,867.74 115.76,663.6 115.22,459.46 114.69,255.31 556.85,0 1217.02,378.92 1218.11,787.21 "/>
    <polygon class="fil2" points="775.76,1042.52 115.76,663.6 115.22,459.46 775.22,838.37 "/>
    <polygon class="fil3" points="812.16,1225.94 812.16,1290.81 738.47,1333.33 738.29,1224.86 776.31,1246.67 "/>
    <g>
     <ellipse class="fil4" transform="matrix(-0.505 -0.8631 0.8631 -0.505 217.501 823.997)" rx="53.67" ry="30.99"/>
     <ellipse class="fil4" transform="matrix(-0.505 -0.8631 0.8631 -0.505 216.901 619.895)" rx="53.67" ry="30.99"/>
    </g>
    <g>
     <path class="fil1" d="M712.2 956.73c-9.93,0 -17.99,-8.04 -18.02,-17.96l-0.23 -69.47c-0.03,-9.95 8.01,-18.04 17.96,-18.07l0.06 0c9.93,0 17.99,8.04 18.02,17.96l0.23 69.47c0.01,4.78 -1.87,9.37 -5.24,12.76 -3.37,3.39 -7.94,5.3 -12.73,5.31l-0.05 0z"/>
     <path class="fil1" d="M661.42 927.59c-9.93,0 -17.99,-8.04 -18.02,-17.96l-0.23 -69.48c-0.01,-4.78 1.87,-9.37 5.24,-12.76 3.37,-3.39 7.94,-5.3 12.73,-5.31l0.05 0c9.93,0 17.99,8.04 18.02,17.96l0.23 69.48c0.03,9.95 -8.02,18.04 -17.96,18.07l-0.05 0z"/>
     <path class="fil1" d="M610.63 898.45c-9.93,0 -17.99,-8.04 -18.02,-17.96l-0.23 -69.48c-0.01,-4.78 1.87,-9.37 5.24,-12.76 3.37,-3.39 7.94,-5.3 12.72,-5.31l0.05 0c9.93,0 17.99,8.04 18.02,17.96l0.23 69.48c0.01,4.78 -1.87,9.37 -5.24,12.76 -3.37,3.39 -7.94,5.3 -12.72,5.31l-0.05 0z"/>
     <path class="fil1" d="M559.85 869.31c-9.93,0 -17.99,-8.04 -18.02,-17.96l-0.23 -69.48c-0.03,-9.95 8.02,-18.04 17.96,-18.07l0.05 0c9.93,0 17.99,8.04 18.02,17.96l0.23 69.48c0.01,4.78 -1.87,9.37 -5.24,12.76 -3.37,3.39 -7.94,5.3 -12.72,5.31l-0.05 0z"/>
     <path class="fil1" d="M509.07 840.16c-9.93,0 -17.99,-8.04 -18.02,-17.96l-0.23 -69.47c-0.01,-4.78 1.87,-9.37 5.24,-12.76 3.37,-3.39 7.94,-5.3 12.72,-5.31l0.05 -0c9.93,0 17.99,8.04 18.02,17.96l0.23 69.47c0.03,9.95 -8.02,18.04 -17.96,18.07l-0.05 0z"/>
     <path class="fil1" d="M458.29 811.02c-9.93,0 -17.99,-8.04 -18.02,-17.96l-0.23 -69.47c-0.03,-9.95 8.02,-18.04 17.96,-18.07l0.06 0c9.93,0 17.99,8.04 18.02,17.96l0.23 69.47c0.01,4.78 -1.87,9.37 -5.24,12.76 -3.37,3.39 -7.94,5.3 -12.72,5.31l-0.06 0z"/>
    </g>
    <polygon class="fil5" points="1217.57,583.06 775.22,838.37 774.69,634.23 114.69,255.31 556.85,0 1217.02,378.92 "/>
    <polygon class="fil6" points="1218.11,787.21 775.76,1042.52 775.22,838.37 1217.57,583.06 "/>
    <g>
     <polygon class="fil5" points="1218.65,991.35 1180.63,1013.33 1106.94,1055.85 1050.72,1088.29 812.16,1225.94 776.31,1246.67 775.76,1042.52 1218.11,787.21 "/>
     <polygon class="fil5" points="1218.65,581.21 1180.63,603.19 1106.94,645.71 1050.72,678.14 812.16,815.8 776.31,836.52 775.76,632.38 1218.11,377.06 "/>
    </g>
    <ellipse class="fil4" transform="matrix(-0.505 -0.8631 0.8631 -0.505 216.521 415.644)" rx="53.67" ry="30.99"/>
    <g>
     <path class="fil2" d="M712.72 1160.89c-9.93,0 -17.99,-8.04 -18.02,-17.96l-0.23 -69.48c-0.03,-9.95 8.02,-18.04 17.96,-18.07l0.06 0c9.93,0 17.99,8.04 18.02,17.96l0.23 69.48c0.03,9.95 -8.02,18.04 -17.96,18.07l-0.06 0z"/>
     <path class="fil2" d="M661.94 1131.76c-9.93,0 -17.99,-8.04 -18.02,-17.96l-0.23 -69.48c-0.03,-9.95 8.02,-18.04 17.96,-18.07l0.06 0c9.93,0 17.99,8.04 18.02,17.96l0.23 69.48c0.03,9.95 -8.01,18.04 -17.96,18.07l-0.06 0z"/>
     <path class="fil2" d="M611.16 1102.61c-9.93,0 -17.99,-8.04 -18.02,-17.96l-0.23 -69.48c-0.03,-9.95 8.01,-18.04 17.96,-18.07l0.06 0c9.93,0 17.99,8.04 18.02,17.96l0.23 69.48c0.03,9.95 -8.02,18.04 -17.96,18.07l-0.06 0z"/>
     <path class="fil2" d="M560.38 1073.48c-9.93,0 -17.99,-8.04 -18.02,-17.96l-0.23 -69.48c-0.03,-9.95 8.02,-18.04 17.96,-18.07 9.9,0.09 17.92,8.07 18.07,17.96l0.23 69.48c0.03,9.95 -8.01,18.04 -17.96,18.07l-0.05 0z"/>
     <path class="fil2" d="M509.62 1044.32c-9.93,0 -17.99,-8.04 -18.02,-17.96l-0.23 -69.47c-0.03,-9.95 8.02,-18.04 17.96,-18.07l0.05 0c9.93,0 17.99,8.04 18.02,17.96l0.23 69.47c0.03,9.95 -8.01,18.04 -17.96,18.07l-0.05 0z"/>
     <path class="fil2" d="M458.83 1015.18c-9.93,0 -17.99,-8.04 -18.02,-17.96l-0.23 -69.48c-0.03,-9.95 8.01,-18.04 17.96,-18.07l0.06 0c9.93,0 17.99,8.04 18.02,17.96l0.23 69.48c0.03,9.95 -8.02,18.04 -17.96,18.07l-0.06 0z"/>
     <path class="fil2" d="M711.65 752.57c-9.93,0 -17.99,-8.04 -18.02,-17.96l-0.23 -69.47c-0.03,-9.95 8.02,-18.04 17.96,-18.07l0.06 0c9.93,0 17.99,8.04 18.02,17.96l0.23 69.47c0.03,9.95 -8.02,18.04 -17.96,18.07l-0.06 0z"/>
     <path class="fil2" d="M660.87 723.43c-9.93,0 -17.99,-8.04 -18.02,-17.96l-0.23 -69.48c-0.03,-9.95 8.01,-18.04 17.96,-18.07l0.05 0c9.93,0 17.99,8.04 18.02,17.96l0.23 69.48c0.03,9.95 -8.02,18.04 -17.96,18.07l-0.05 0z"/>
     <path class="fil2" d="M610.11 694.29c-9.93,0 -17.99,-8.04 -18.02,-17.96l-0.23 -69.48c-0.03,-9.95 8.02,-18.04 17.96,-18.07l0.06 -0c9.93,0 17.99,8.04 18.02,17.96l0.23 69.48c0.03,9.95 -8.02,18.04 -17.96,18.07l-0.06 0z"/>
     <path class="fil2" d="M559.32 665.15c-9.93,0 -17.99,-8.04 -18.02,-17.96l-0.23 -69.48c-0.03,-9.95 8.02,-18.04 17.96,-18.07l0.06 -0c9.93,0 17.99,8.04 18.02,17.96l0.23 69.48c0.03,9.95 -8.02,18.04 -17.96,18.07l-0.06 0z"/>
     <path class="fil2" d="M508.54 636.02c-9.93,0 -17.99,-8.04 -18.02,-17.96l-0.23 -69.48c-0.03,-9.95 8.02,-18.04 17.96,-18.07l0.06 -0c9.93,0 17.99,8.04 18.02,17.96l0.23 69.48c0.03,9.95 -8.01,18.04 -17.96,18.07l-0.06 0z"/>
     <path class="fil2" d="M457.76 606.86c-9.93,0 -17.99,-8.04 -18.02,-17.96l-0.23 -69.47c-0.03,-9.95 8.01,-18.04 17.96,-18.07l0.05 0c9.93,0 17.99,8.04 18.02,17.96l0.23 69.47c0.03,9.95 -8.02,18.04 -17.96,18.07l-0.05 0z"/>
    </g>
    <g>
     <polygon class="fil3" points="1180.63,1013.33 1180.63,1078.02 1106.94,1120.54 1106.94,1055.85 "/>
     <polygon class="fil3" points="324.78,987.57 230.72,1041.8 230.54,933.33 "/>
    </g>
   </g>
   <g>
   </g>
   <g>
   </g>
   <g>
   </g>
   <g>
   </g>
   <g>
   </g>
   <g>
   </g>
   <g>
   </g>
   <g>
   </g>
   <g>
   </g>
   <g>
   </g>
   <g>
   </g>
   <g>
   </g>
   <g>
   </g>
   <g>
   </g>
   <g>
   </g>
  </g>
 </g>
</svg>
