<?xml version="1.0" encoding="UTF-8"?>
<!DOCTYPE svg PUBLIC "-//W3C//DTD SVG 1.1//EN" "http://www.w3.org/Graphics/SVG/1.1/DTD/svg11.dtd">
<!-- Creator: CorelDRAW 2020 (64 Bit) -->
<svg xmlns="http://www.w3.org/2000/svg" xml:space="preserve" width="1.33333in" height="1.33333in" version="1.1" style="shape-rendering:geometricPrecision; text-rendering:geometricPrecision; image-rendering:optimizeQuality; fill-rule:evenodd; clip-rule:evenodd"
viewBox="0 0 1333.33 1333.33"
 xmlns:xlink="http://www.w3.org/1999/xlink"
 xmlns:xodm="http://www.corel.com/coreldraw/odm/2003">
 <defs>
  <style type="text/css">
   <![CDATA[
    .fil5 {fill:#FEFEFE;fill-rule:nonzero}
    .fil6 {fill:#373435;fill-rule:nonzero}
    .fil2 {fill:#445C71;fill-rule:nonzero}
    .fil3 {fill:#717275;fill-rule:nonzero}
    .fil4 {fill:#A0C7E7;fill-rule:nonzero}
    .fil0 {fill:#B4B4B3;fill-rule:nonzero}
    .fil1 {fill:#DADCDA;fill-rule:nonzero}
   ]]>
  </style>
 </defs>
 <g id="Camada_x0020_1">
  <metadata id="CorelCorpID_0Corel-Layer"/>
  <g id="_3146239361104">
   <g>
    <path class="fil0" d="M757.02 1067.19l49.01 28.11c1.62,0.9 3.43,1.8 5.04,2.88l1.62 1.08c93.15,56.94 96.22,144.86 6.31,196.76 -90.45,52.61 -240.54,49.19 -335.31,-7.75 -94.78,-56.94 -98.38,-145.58 -7.93,-198.02 31.15,-17.2 65.26,-28.38 100.54,-32.97l180.71 9.91z"/>
    <path class="fil1" d="M1145.66 500.53l0 685.94 -90.99 52.43 -241.98 -139.64 -1.62 -1.08c-1.62,-1.08 -3.43,-1.98 -5.04,-2.88l-49.01 -28.11 0 83.43c0.3,3.7 -1.09,7.35 -3.78,9.91l-0.9 0.54 -90.09 52.07 -0.17 -0c-2.81,1.69 -6.35,1.54 -9.01,-0.36l-63.78 -36.76c-8.03,-5.76 -12.84,-14.99 -12.97,-24.87l0 -188.46 -388.65 -224.33 0 -685.75 90.99 -52.61 867.01 500.53z"/>
    <polygon class="fil2" points="1054.68,614.58 1054.68,1157.09 1050.17,1157.09 193.07,662.15 187.67,662.15 187.67,119.81 193.07,119.81 1050.17,614.58 "/>
    <polygon class="fil0" points="1145.67,500.53 1054.68,553.14 187.67,52.61 278.65,-0 "/>
    <g>
     <polygon class="fil3" points="1145.67,500.53 1145.67,1186.46 1054.68,1238.89 1054.68,553.14 "/>
     <path class="fil3" d="M757.02 1067.19l0 83.43c0.3,3.7 -1.09,7.35 -3.78,9.91l-0.9 0.54 -90.09 52.07 -0.18 -0 0 -0.18c2.88,-2.44 4.36,-6.15 3.96,-9.91l0 -188.46 90.98 52.61z"/>
    </g>
    <g>
     <path class="fil4" d="M252.19 298.5c-4.09,-0 -7.66,-2.76 -8.7,-6.7 -1.04,-3.95 0.7,-8.11 4.26,-10.13l59.1 -33.68c2.8,-1.6 6.24,-1.59 9.03,0.04 2.78,1.63 4.48,4.62 4.46,7.85 -0.03,3.22 -1.77,6.19 -4.58,7.78l-59.1 33.68c-1.37,0.76 -2.9,1.17 -4.46,1.17z"/>
     <path class="fil4" d="M252.19 383.26c-4.09,-0 -7.66,-2.76 -8.7,-6.7 -1.04,-3.95 0.7,-8.11 4.26,-10.13l29.56 -16.84c4.33,-2.46 9.82,-0.94 12.28,3.38 2.46,4.33 0.94,9.82 -3.38,12.28l-29.56 16.84c-1.36,0.77 -2.89,1.18 -4.45,1.18z"/>
     <path class="fil4" d="M311.25 349.53c-2.39,0.03 -4.67,-0.94 -6.3,-2.69 -0.91,-0.76 -1.6,-1.76 -1.99,-2.89 -0.51,-1.07 -0.76,-2.25 -0.72,-3.43 -0.02,-1.18 0.23,-2.34 0.72,-3.41 0.43,-1.1 1.11,-2.09 1.99,-2.89 0.81,-0.86 1.8,-1.54 2.89,-1.99 2.19,-0.9 4.65,-0.9 6.84,0 3.3,1.46 5.47,4.68 5.58,8.29 -0.1,4.94 -4.07,8.91 -9.01,9.01l0 0z"/>
     <path class="fil4" d="M340.85 332.74c-4.09,-0 -7.66,-2.76 -8.7,-6.7 -1.04,-3.95 0.7,-8.11 4.26,-10.13l44.34 -25.27c2.8,-1.59 6.23,-1.57 9.01,0.06 2.78,1.63 4.47,4.61 4.45,7.83 -0.02,3.22 -1.76,6.18 -4.56,7.77l-44.34 25.27c-1.36,0.77 -2.89,1.18 -4.45,1.18z"/>
     <path class="fil4" d="M252.19 468c-4.09,-0 -7.66,-2.76 -8.7,-6.7 -1.04,-3.95 0.7,-8.11 4.26,-10.13l133 -75.76c4.33,-2.46 9.82,-0.94 12.28,3.38 2.46,4.32 0.94,9.82 -3.38,12.28l-133 75.77c-1.36,0.77 -2.89,1.17 -4.45,1.18z"/>
     <path class="fil4" d="M414.68 375.31c-1.16,-0.01 -2.31,-0.19 -3.41,-0.55 -1.03,-0.56 -2,-1.22 -2.89,-1.99 -1.73,-1.64 -2.71,-3.92 -2.71,-6.3 0.05,-1.23 0.3,-2.45 0.72,-3.61 0.5,-1.06 1.17,-2.04 1.99,-2.89 0.88,-0.76 1.85,-1.43 2.89,-1.97 2.19,-0.91 4.66,-0.91 6.84,0 1.11,0.5 2.14,1.17 3.06,1.97 0.76,0.85 1.37,1.83 1.8,2.89 0.57,1.12 0.88,2.35 0.9,3.61 -0.08,2.36 -1.04,4.61 -2.69,6.3 -1.76,1.65 -4.08,2.56 -6.49,2.54z"/>
     <path class="fil4" d="M444.31 358.56c-4.09,-0 -7.66,-2.76 -8.7,-6.7 -1.04,-3.95 0.7,-8.11 4.26,-10.13l14.78 -8.41c4.33,-2.46 9.82,-0.94 12.28,3.38 2.46,4.33 0.94,9.82 -3.38,12.28l-14.78 8.41c-1.36,0.77 -2.89,1.18 -4.45,1.18z"/>
    </g>
   </g>
   <g>
   </g>
   <g>
   </g>
   <g>
   </g>
   <g>
   </g>
   <g>
   </g>
   <g>
   </g>
   <g>
   </g>
   <g>
   </g>
   <g>
   </g>
   <g>
   </g>
   <g>
   </g>
   <g>
   </g>
   <g>
   </g>
   <g>
   </g>
   <g>
   </g>
  </g>
  <g id="_3146239389280">
   <path class="fil1" d="M1241.64 471.03l-0.25 333.38 -26.56 15.3 -117.57 -67.84 -0.79 -0.53c-0.79,-0.53 -1.67,-0.96 -2.45,-1.4l-23.81 -13.66c-58.7,-33.37 -34.94,-18.84 -87.8,-50.77l-188.83 -108.99 0 -333.19 24.86 -14.37 423.2 242.07z"/>
   <polygon class="fil0" points="1241.64,471.03 1214.84,486.53 793.59,243.33 818.44,228.96 "/>
   <polygon class="fil3" points="1241.64,471.03 1241.39,804.41 1214.84,819.71 1214.84,486.53 "/>
   <path class="fil5" d="M1198.85 503.06l-0.36 280c-130.57,-75.24 -261.06,-150.54 -391.57,-225.88l0 -280.55 391.93 226.43z"/>
   <path class="fil0" d="M1198.51 768.81l-0.02 14.23c-130.57,-75.24 -261.06,-150.54 -391.57,-225.88l15.51 -6.34 376.09 217.99z"/>
   <path class="fil0" d="M821.57 285.1c-0.08,126.25 0,190.84 -0.15,267.57 -6.48,1.62 -7.41,1.89 -14.5,4.51l0 -280.55 14.66 8.47z"/>
  </g>
  <g id="_3146239390432">
   <path class="fil1" d="M490.85 730.74l-0.25 333.38 -26.56 15.3 -117.57 -67.84 -0.79 -0.53c-0.79,-0.53 -1.67,-0.96 -2.45,-1.4l-23.81 -13.66c-58.7,-33.37 -34.94,-18.84 -87.8,-50.77l-188.83 -108.99 0 -333.19 24.86 -14.37 423.2 242.07z"/>
   <polygon class="fil0" points="490.85,730.74 464.05,746.24 42.8,503.04 67.65,488.67 "/>
   <polygon class="fil3" points="490.85,730.74 490.6,1064.12 464.05,1079.42 464.05,746.24 "/>
   <path class="fil5" d="M448.06 762.77l-0.36 280c-130.57,-75.24 -261.06,-150.54 -391.57,-225.88l0 -280.55 391.93 226.43z"/>
   <path class="fil0" d="M447.72 1028.52l-0.02 14.23c-130.57,-75.24 -261.06,-150.54 -391.57,-225.88l15.51 -6.34 376.09 217.99z"/>
   <path class="fil0" d="M70.78 544.81c-0.08,126.25 0,190.84 -0.15,267.57 -6.48,1.62 -7.41,1.89 -14.5,4.51l0 -280.55 14.66 8.47z"/>
  </g>
  <path class="fil5" d="M523.98 458.02c0,27.13 0,54.14 0,81.15 -33.97,1.65 -67.94,2.94 -102,4.13 34.07,39.63 67.94,79.26 101.73,118.65 -0.46,26.54 -1.39,53.07 -2.4,79.24 -58.98,-69.46 -118.25,-139.28 -177.98,-209.69 0,-22.52 0,-45.17 0.09,-67.81 60.19,-1.19 120.28,-3.19 180.56,-5.67zm130.26 358.64c0.74,-26.65 1.38,-53.31 1.75,-80.19 34.16,-1.06 68.22,-2 102.37,-2.95 -33.87,-40.1 -67.76,-80.19 -101.64,-120.06 0,-27.13 0,-54.13 0,-81.14 60.1,70.76 120.19,141.87 180.19,213.34 0,22.65 0,45.52 0,68.17 -60.55,0.82 -121.3,2.01 -182.68,2.83z"/>
  <path class="fil6" d="M872.02 405.76c0,12.7 0,25.33 0,38.04 3.64,-2.05 7.1,-3.11 10.44,-2.84 3.33,0.27 7.13,1.62 11.23,4.03 4.51,2.64 8.24,5.78 11.41,9.31 3.07,3.41 5.69,7.59 7.83,12.47 2.05,4.67 3.1,8.92 3.1,12.86 0,12.79 0,25.57 0,38.35 2.06,1.19 4.1,2.42 6.24,3.79 1.43,0.91 2.49,1.74 3.03,2.6 0.55,0.87 0.86,1.81 0.86,2.69 0,0.94 -0.29,1.46 -0.86,1.73 -0.58,0.28 -1.63,-0.08 -3.09,-0.94 -6.12,-3.63 -12.3,-7.26 -18.26,-10.81 -1.45,-0.86 -2.44,-1.74 -3.03,-2.77 -0.55,-0.94 -0.85,-1.81 -0.85,-2.76 0,-0.87 0.28,-1.57 0.85,-1.73 0.58,-0.16 1.63,0.16 3.03,1.02 2.06,1.26 4.19,2.37 6.31,3.79 0,-12.7 0,-25.33 0,-37.95 0,-4.5 -1.48,-9.07 -4.43,-13.81 -2.98,-4.8 -7.12,-8.75 -12.5,-11.92 -4.14,-2.43 -7.76,-3.41 -10.74,-2.99 -2.11,0.29 -5.64,1.89 -10.61,4.81 0,13.02 -0.06,26.04 -0.06,38.99 2.06,1.18 4.21,2.48 6.31,3.71 1.42,0.82 2.37,1.74 2.97,2.68 0.6,0.94 0.91,1.89 0.91,2.76 0,0.94 -0.31,1.43 -0.91,1.66 -0.6,0.23 -1.6,-0.05 -2.97,-0.87 -6.15,-3.67 -12.24,-7.37 -18.33,-10.97 -1.38,-0.81 -2.47,-1.72 -3.03,-2.61 -0.64,-1 -0.91,-1.89 -0.91,-2.76 0,-0.95 0.33,-1.43 0.91,-1.66 0.63,-0.24 1.65,0.05 3.03,0.87 2.08,1.23 4.13,2.45 6.25,3.71 0.06,-26.52 0.13,-53.11 0.13,-79.78 -2.55,-1.5 -5.09,-3.02 -7.65,-4.49 -1.39,-0.81 -2.49,-1.79 -3.04,-2.61 -0.66,-0.99 -0.91,-1.97 -0.91,-2.84 0,-0.94 0.34,-1.36 0.91,-1.57 0.67,-0.26 1.65,0.06 3.04,0.87 4.43,2.58 8.92,5.29 13.41,7.97zm90.9 82.23c10.25,5.92 20.63,12.09 31.01,18.15 1.38,0.8 2.39,1.68 3.03,2.68 0.57,0.89 0.91,1.82 0.91,2.76 0,0.87 -0.31,1.43 -0.91,1.66 -0.61,0.23 -1.66,-0.06 -3.03,-0.87 -10.39,-6.13 -20.76,-12.23 -31.01,-18.23 -0.06,13.81 -0.07,27.62 -0.12,41.35 -0.01,3.55 1.34,7.34 4.01,11.36 2.67,4.03 6.61,7.6 11.65,10.58 3.87,2.3 8.08,4.08 12.69,5.52 4.5,1.4 8.02,2.15 10.5,1.97 0.92,-0.06 1.66,-0.03 2.24,0.32 0.75,0.44 1.4,1.1 1.94,2.05 0.54,0.95 0.79,1.81 0.79,2.68 0,0.71 -0.3,1.28 -0.85,1.58 -1.5,0.8 -5.11,0.43 -10.68,-0.94 -5.65,-1.39 -10.98,-3.65 -16.14,-6.71 -6.66,-3.95 -11.96,-8.77 -15.9,-14.52 -3.99,-5.84 -5.95,-11.53 -5.94,-17.28 0.04,-13.81 0.06,-27.62 0.12,-41.35 -3.58,-2.05 -7.07,-4.24 -10.62,-6.31 -1.3,-0.76 -2.27,-1.52 -2.91,-2.52 -0.57,-0.89 -0.91,-1.98 -0.91,-2.84 0,-0.87 0.3,-1.38 0.91,-1.57 0.59,-0.19 1.64,-0.03 2.91,0.71 3.58,2.09 7.04,4.26 10.62,6.39 0,-6.16 0,-12.24 0,-18.47 0,-1.49 0.26,-2.26 0.79,-2.6 0.56,-0.36 1.18,-0.26 2.06,0.23 0.82,0.46 1.53,1.18 2.06,2.13 0.56,1.01 0.79,2.21 0.79,3.71 0,6.15 0,12.23 0,18.39zm69.67 40.88c0,2.13 0,4.26 0,6.31 4.85,-2.84 9.79,-2.79 14.62,0.07 3,1.78 5.45,4.05 7.71,7.03 2.22,2.93 4.06,6.63 5.58,10.89 2.54,-1.97 5.15,-3 7.76,-3.15 2.66,-0.16 5.32,0.49 7.95,2.05 4.15,2.46 7.48,5.83 9.95,10.18 3.23,5.67 4.8,10.73 4.79,15.15 -0.04,14.51 -0.06,29.04 -0.06,43.48 1.58,0.95 3.14,1.85 4.8,2.84 1.37,0.81 2.35,1.67 2.97,2.6 0.58,0.87 0.91,1.81 0.91,2.69 0,0.95 -0.28,1.57 -0.91,1.81 -0.58,0.23 -1.6,-0.06 -2.97,-0.87 -3.53,-2.1 -7.04,-4.19 -10.5,-6.16 0,-16.41 0.02,-32.75 0.07,-49.16 0,-3.15 -0.89,-6.37 -2.67,-9.47 -1.8,-3.13 -3.81,-5.39 -6.13,-6.7 -2.11,-1.2 -4.37,-1.73 -6.68,-1.34 -2.36,0.4 -5.04,2.21 -8.07,5.44 0,13.81 0,27.54 0,41.35 1.58,0.94 3.16,1.82 4.8,2.76 1.39,0.79 2.35,1.68 2.91,2.6 0.58,0.96 0.91,1.82 0.91,2.77 0,0.87 -0.3,1.43 -0.91,1.66 -0.6,0.24 -1.59,0.02 -2.98,-0.79 -3.53,-2.1 -7.04,-4.1 -10.49,-6.16 0.06,-16.26 0,-32.52 0.06,-48.76 0.01,-3.24 -0.84,-6.56 -2.67,-9.79 -1.75,-3.07 -3.78,-5.26 -5.94,-6.55 -2.07,-1.23 -4.06,-1.71 -6.07,-1.42 -2.78,0.41 -5.64,2.21 -8.8,5.21 0,13.81 -0.06,27.54 -0.06,41.35 1.57,0.87 3.15,1.83 4.79,2.77 1.39,0.79 2.39,1.72 2.98,2.6 0.62,0.93 0.91,1.89 0.91,2.76 0,0.95 -0.31,1.51 -0.91,1.74 -0.6,0.24 -1.59,-0.06 -2.98,-0.87 -5.1,-2.97 -10.22,-5.98 -15.29,-9 -1.41,-0.83 -2.37,-1.74 -2.98,-2.69 -0.6,-0.94 -0.91,-1.81 -0.91,-2.68 0,-0.95 0.28,-1.57 0.91,-1.81 0.58,-0.23 1.57,0.09 2.98,0.94 1.56,0.96 3.16,1.9 4.79,2.84 0,-17.28 0.06,-34.48 0.13,-51.69 -1.64,-0.94 -3.22,-1.91 -4.8,-2.83 -1.38,-0.8 -2.37,-1.66 -2.97,-2.61 -0.6,-0.94 -0.91,-1.82 -0.91,-2.76 0,-0.87 0.28,-1.5 0.91,-1.74 0.58,-0.22 1.59,0.06 2.97,0.87 3.47,2.03 6.98,4.18 10.5,6.23zm112.93 36.77c-0.06,28.96 -0.13,58 -0.13,86.96 7.47,4.33 14.86,8.62 22.33,12.94 1.39,0.81 2.46,1.73 3.04,2.61 0.56,0.85 0.85,1.81 0.85,2.76 0,0.95 -0.28,1.46 -0.85,1.73 -0.58,0.28 -1.65,-0.07 -3.04,-0.87 -16.93,-9.77 -33.8,-19.59 -50.67,-29.36 -1.38,-0.8 -2.3,-1.65 -2.91,-2.6 -0.61,-0.95 -0.91,-1.82 -0.91,-2.76 0,-0.95 0.32,-1.48 0.91,-1.66 0.68,-0.2 1.59,-0.01 2.97,0.79 7.47,4.32 14.99,8.68 22.52,13.1 0,-26.91 0.06,-53.81 0.12,-80.73 -5.53,-3.31 -11.04,-6.48 -16.51,-9.63 -1.38,-0.79 -2.34,-1.68 -2.98,-2.68 -0.63,-0.97 -0.97,-1.81 -0.97,-2.76 0,-0.87 0.33,-1.44 0.91,-1.66 0.63,-0.24 1.65,0.08 3.04,0.87 7.41,4.26 14.8,8.52 22.27,12.94z"/>
  <path class="fil6" d="M94.54 700.14c20.69,-0.16 41.33,-0.33 62.02,-0.72 0.96,-0.01 1.74,0.35 2.3,0.63 0.71,0.35 1.39,1.04 2.01,2.05 0.58,0.96 0.85,1.82 0.85,2.69 0,1.18 -0.8,1.8 -2.37,1.81 -17.72,0.14 -35.38,0.39 -53.04,0.48 17.59,21.15 35.22,42.26 52.97,63.44 1.47,1.77 2.25,3.24 2.25,4.5 0,0.87 -0.28,1.5 -0.85,1.74 -0.57,0.23 -1.29,0.08 -2.06,-0.39 -0.49,-0.3 -1.17,-1.06 -2.13,-2.21 -20.64,-24.74 -41.32,-49.4 -61.96,-74.02zm141.63 46.48c-0.06,18.3 -0.13,36.54 -0.13,54.84 0,7.58 -2.56,12.52 -7.77,15 -5.23,2.49 -11.41,1.57 -18.51,-2.61 -4.3,-2.52 -8.53,-6.1 -12.74,-10.81 -4.1,-4.59 -8.68,-10.73 -13.59,-18.46 0,-7.65 0.01,-15.23 0.06,-22.88 0.01,-1.5 0.31,-2.37 0.85,-2.69 0.55,-0.31 1.22,-0.25 2,0.24 0.85,0.54 1.54,1.21 2.07,2.21 0.5,0.97 0.87,2.21 0.85,3.71 -0.09,6.48 -0.19,13.1 -0.19,19.73 3.52,5.6 6.98,10.27 10.44,14.05 3.39,3.71 6.87,6.71 10.2,8.68 3.7,2.2 7.23,3.35 10.62,3.31 2.49,-0.03 4.8,-1.18 6.86,-3.47 2.06,-2.28 3.15,-5.37 3.15,-9.39 0,-18.23 0.06,-36.53 0.12,-54.76 -7.46,-4.42 -14.93,-8.76 -22.39,-13.18 -1.46,-0.86 -2.43,-1.66 -3.03,-2.6 -0.61,-0.94 -0.91,-1.9 -0.91,-2.84 0,-0.95 0.33,-1.43 0.91,-1.66 0.63,-0.25 1.57,0.01 3.03,0.87 13.89,8.21 27.88,16.36 41.75,24.38 1.42,0.82 2.32,1.74 2.91,2.61 0.62,0.93 0.91,1.89 0.91,2.76 0,0.95 -0.31,1.63 -0.91,1.81 -0.61,0.2 -1.5,-0.04 -2.91,-0.87 -4.53,-2.65 -9.1,-5.29 -13.65,-7.97zm81.98 47.89c0,-0.63 0,-1.34 0,-2.05 0,-1.5 0.25,-2.45 0.79,-2.76 0.54,-0.31 1.19,-0.28 2.06,0.23 0.89,0.51 1.6,1.25 2.12,2.21 0.51,0.94 0.79,2.13 0.79,3.63 0,5.28 -0.06,10.5 -0.06,15.7 0,1.58 -0.31,2.44 -0.78,2.77 -0.55,0.38 -1.25,0.37 -2.13,-0.16 -0.82,-0.5 -1.46,-1.27 -2,-2.13 -0.55,-0.87 -0.77,-1.98 -0.85,-3.39 -0.22,-4.26 -2.13,-9.07 -5.83,-14.52 -3.7,-5.44 -8.56,-9.94 -14.56,-13.41 -6.37,-3.7 -11.37,-4.86 -15.12,-3.55 -3.71,1.29 -5.58,4.42 -5.58,9.23 0,2.45 0.55,5.06 1.58,7.66 1.03,2.6 2.45,5.04 4.19,7.33 1.72,2.27 3.56,4.45 5.77,6.47 2.09,1.93 5.52,4.73 10.2,8.29 7.76,5.91 13.15,10.44 16.07,13.57 3.92,4.2 6.97,8.69 8.98,13.26 2.05,4.66 2.97,9.15 2.97,13.89 0,7.1 -2.63,11.65 -7.83,13.65 -5.24,2.01 -12.29,0.44 -21.18,-4.74 -9.97,-5.79 -17.83,-13.96 -23.79,-24.22 0,1.26 0,2.44 0,3.63 0,1.43 -0.24,2.37 -0.78,2.69 -0.54,0.31 -1.22,0.23 -2.13,-0.32 -0.79,-0.47 -1.44,-1.11 -2,-2.13 -0.53,-0.96 -0.85,-2.13 -0.85,-3.63 0,-5.68 0,-11.44 0,-17.12 0,-1.57 0.26,-2.49 0.79,-2.76 0.56,-0.28 1.23,-0.34 2.06,0.16 0.86,0.52 1.54,1.25 2.06,2.13 0.51,0.85 0.78,2.06 0.85,3.39 0.23,4.66 2.51,10.17 6.68,16.26 4.32,6.3 9.94,11.54 17.11,15.7 7.21,4.19 12.98,5.48 17.12,4.02 4.16,-1.46 6.24,-4.81 6.24,-10.26 0,-3.23 -0.75,-6.56 -2.37,-10.09 -1.59,-3.49 -4.02,-6.94 -7.16,-10.19 -2.19,-2.27 -6.74,-6.09 -13.6,-11.36 -9.46,-7.27 -16.34,-13.87 -20.51,-19.88 -4.15,-5.98 -6.19,-12.31 -6.19,-18.86 0,-6.55 2.36,-10.77 7.17,-12.63 4.78,-1.85 11.2,-0.52 19.05,4.02 7.98,4.61 14.87,11.44 20.63,20.28zm98.67 94.54c-20.69,0.63 -41.38,1.22 -62.01,1.74 -1.09,0.03 -1.83,-0.07 -2.37,-0.4 -0.74,-0.45 -1.42,-1.21 -1.94,-2.13 -0.56,-0.98 -0.85,-1.82 -0.85,-2.61 0,-1.26 0.79,-1.85 2.37,-1.89 17.65,-0.43 35.38,-0.95 53.09,-1.5 -17.66,-20.91 -35.22,-41.99 -52.97,-62.96 -1.48,-1.74 -2.37,-3.24 -2.37,-4.43 0,-0.87 0.26,-1.48 0.85,-1.81 0.55,-0.3 1.25,-0.2 2,0.32 0.52,0.35 1.26,0.96 2.31,2.21 20.61,24.55 41.26,49 61.89,73.46z"/>
 </g>
</svg>
